<svg width="102" height="102" viewBox="0 0 102 102" fill="none" xmlns="http://www.w3.org/2000/svg">
<g clip-path="url(#clip0_80_4)">
<path fill-rule="evenodd" clip-rule="evenodd" d="M86.0625 57.375C86.0625 56.5296 85.7267 55.7189 85.1289 55.1211C84.5311 54.5233 83.7204 54.1875 82.875 54.1875H19.125C18.2796 54.1875 17.4689 54.5233 16.8711 55.1211C16.2733 55.7189 15.9375 56.5296 15.9375 57.375V92.4375C15.9367 93.6935 16.1834 94.9373 16.6637 96.0979C17.144 97.2585 17.8483 98.313 18.7364 99.2011C19.6245 100.089 20.679 100.794 21.8396 101.274C23.0002 101.754 24.244 102.001 25.5 102H76.5C79.0372 102 81.4725 100.99 83.2575 99.195C85.0521 97.4068 86.0625 94.9716 86.0625 92.4375V57.375ZM86.0625 9.5625C86.0625 7.02525 85.0553 4.59319 83.2607 2.80181C82.3734 1.91323 81.3195 1.20837 80.1594 0.727598C78.9993 0.246825 77.7558 -0.000425742 76.5 5.50299e-07H25.5C22.9627 5.50299e-07 20.5307 1.00725 18.7393 2.80181C17.8507 3.68915 17.1459 4.74303 16.6651 5.90312C16.1843 7.06321 15.9371 8.30673 15.9375 9.5625V38.25C15.9375 40.7873 16.9447 43.2193 18.7393 45.0107C19.6266 45.8993 20.6805 46.6041 21.8406 47.0849C23.0007 47.5657 24.2442 47.8129 25.5 47.8125H76.5C79.0372 47.8125 81.4693 46.8053 83.2607 45.0107C84.1493 44.1234 84.8541 43.0695 85.3349 41.9094C85.8157 40.7493 86.0629 39.5058 86.0625 38.25V9.5625ZM38.25 12.75C35.7566 12.8144 33.387 13.8501 31.6462 15.6364C29.9054 17.4227 28.9312 19.8183 28.9312 22.3125C28.9312 24.8067 29.9054 27.2023 31.6462 28.9886C33.387 30.7749 35.7566 31.8106 38.25 31.875C40.7434 31.8106 43.113 30.7749 44.8538 28.9886C46.5946 27.2023 47.5688 24.8067 47.5688 22.3125C47.5688 19.8183 46.5946 17.4227 44.8538 15.6364C43.113 13.8501 40.7434 12.8144 38.25 12.75ZM63.75 12.75C61.2566 12.8144 58.887 13.8501 57.1462 15.6364C55.4054 17.4227 54.4312 19.8183 54.4312 22.3125C54.4312 24.8067 55.4054 27.2023 57.1462 28.9886C58.887 30.7749 61.2566 31.8106 63.75 31.875C66.2434 31.8106 68.613 30.7749 70.3538 28.9886C72.0946 27.2023 73.0688 24.8067 73.0688 22.3125C73.0688 19.8183 72.0946 17.4227 70.3538 15.6364C68.613 13.8501 66.2434 12.8144 63.75 12.75ZM91.8924 54.1875H92.4375C94.9747 54.1875 97.4068 55.1947 99.1982 56.9893C100.993 58.7807 102 61.2127 102 63.75V82.875C102 85.4122 100.993 87.8443 99.1982 89.6357C98.3109 90.5243 97.257 91.2291 96.0969 91.7099C94.9368 92.1907 93.6933 92.4379 92.4375 92.4375V57.375C92.4375 56.2562 92.2463 55.1852 91.8924 54.1875ZM10.1076 54.1875H9.5625C7.02525 54.1875 4.59319 55.1947 2.80181 56.9893C1.91323 57.8766 1.20837 58.9305 0.727598 60.0906C0.246825 61.2507 -0.000425742 62.4942 5.50299e-07 63.75V82.875C5.50299e-07 85.4122 1.00725 87.8443 2.80181 89.6357C3.68915 90.5243 4.74303 91.2291 5.90312 91.7099C7.06321 92.1907 8.30673 92.4379 9.5625 92.4375V57.375C9.5625 56.2562 9.75375 55.1852 10.1076 54.1875Z" fill="white"/>
</g>
<defs>
<clipPath id="clip0_80_4">
<rect width="102" height="102" fill="white"/>
</clipPath>
</defs>
</svg>
